<svg xmlns="http://www.w3.org/2000/svg" width="58" height="63" fill="none"><path fill="#0F0E08" d="M24.1.8V26h-4.788L6.748 10.7V26H.988V.8h4.824L18.34 16.1V.8zm22.558 19.8h-11.7L32.726 26H26.75L37.982.8h5.76L55.01 26h-6.12zm-1.836-4.428-3.996-9.648-3.996 9.648zM23.92 62l-.036-15.12-7.416 12.456H13.84L6.46 47.204V62H.988V36.8h4.824l9.432 15.66 9.288-15.66h4.788l.072 25.2zm22.647.432q-5.4 0-8.424-2.988-2.988-2.988-2.988-8.532V36.8h5.832v13.896q0 6.768 5.616 6.768 2.736 0 4.176-1.62 1.44-1.656 1.44-5.148V36.8h5.76v14.112q0 5.544-3.024 8.532-2.988 2.988-8.388 2.988"/></svg>